<?xml version="1.0" encoding="utf-8"?>
<!-- Generator: Adobe Illustrator 21.1.0, SVG Export Plug-In . SVG Version: 6.00 Build 0)  -->
<svg version="1.1" id="Layer_1" xmlns="http://www.w3.org/2000/svg" xmlns:xlink="http://www.w3.org/1999/xlink" x="0px" y="0px"
	 viewBox="0 0 64 64" style="enable-background:new 0 0 64 64;" xml:space="preserve">
<style type="text/css">
	.st0{fill:#ACBDC5;}
	.st1{fill:#314A52;}
</style>
<g id="Tornado">
	<path class="st0" d="M14,6h24v2c-1.1,0-2,0.9-2,2s0.9,2,2,2h8c1.1,0,2-0.9,2-2s-0.9-2-2-2h8c-1.1,0-2,0.9-2,2s0.9,2,2,2l4,4
		c-1.1,0-2,0.9-2,2s0.9,2,2,2l-4,4c-1.1,0-2,0.9-2,2c0,1.1,0.9,2,2,2v4H42c-1.1,0-2,0.9-2,2c0,1.1,0.9,2,2,2l-12,4c-1.1,0-2,0.9-2,2
		c0,1.1,0.9,2,2,2l2,4h-2c-1.1,0-2,0.9-2,2c0,1.1,0.9,2,2,2h2l2,2H22v-2c1.1,0,2-0.9,2-2c0-1.1-0.9-2-2-2l-8-4c1.1,0,2-0.9,2-2
		c0-1.1-0.9-2-2-2l14-4h2c1.1,0,2-0.9,2-2c0-1.1-0.9-2-2-2h-2l-8-4h2c1.1,0,2-0.9,2-2c0-1.1-0.9-2-2-2h-2l4-4h2c1.1,0,2-0.9,2-2
		s-0.9-2-2-2h-2l-10-2v-2c1.1,0,2-0.9,2-2s-0.9-2-2-2V6z M24,34c0-1.1,0.9-2,2-2h-8c1.1,0,2,0.9,2,2s-0.9,2-2,2h8
		C24.9,36,24,35.1,24,34z"/>
	<path class="st1" d="M54,8H26c-1.1,0-2,0.9-2,2s0.9,2,2,2h32c1.1,0,2,0.9,2,2s-0.9,2-2,2h-8c-1.1,0-2,0.9-2,2c0,1.1,0.9,2,2,2h8
		c1.1,0,2,0.9,2,2c0,1.1-0.9,2-2,2H38c-1.1,0-2,0.9-2,2c0,1.1,0.9,2,2,2h4c1.1,0,2,0.9,2,2c0,1.1-0.9,2-2,2H18c-1.1,0-2-0.9-2-2
		c0-1.1,0.9-2,2-2h12c1.1,0,2-0.9,2-2c0-1.1-0.9-2-2-2H18c-1.1,0-2-0.9-2-2c0-1.1,0.9-2,2-2h24c1.1,0,2-0.9,2-2c0-1.1-0.9-2-2-2H14
		c-1.1,0-2-0.9-2-2s0.9-2,2-2h4c1.1,0,2-0.9,2-2s-0.9-2-2-2H4V4h50c1.1,0,2,0.9,2,2S55.1,8,54,8z M50,32h4c1.1,0,2-0.9,2-2
		c0-1.1-0.9-2-2-2h-4c-1.1,0-2,0.9-2,2C48,31.1,48.9,32,50,32z M14,40h4c1.1,0,2,0.9,2,2s-0.9,2-2,2h-4c-1.1,0-2,0.9-2,2s0.9,2,2,2
		h20c1.1,0,2-0.9,2-2s-0.9-2-2-2h-8c-1.1,0-2-0.9-2-2s0.9-2,2-2h16c1.1,0,2-0.9,2-2s-0.9-2-2-2H14c-1.1,0-2,0.9-2,2S12.9,40,14,40z
		 M22,56h12c1.1,0,2-0.9,2-2s-0.9-2-2-2H22c-1.1,0-2,0.9-2,2S20.9,56,22,56z M34,64h4c1.1,0,2-0.9,2-2s-0.9-2-2-2h-4
		c-1.1,0-2,0.9-2,2S32.9,64,34,64z"/>
</g>
</svg>
