<?xml version="1.0" encoding="utf-8"?>
<!-- Generator: Adobe Illustrator 21.1.0, SVG Export Plug-In . SVG Version: 6.00 Build 0)  -->
<svg version="1.1" id="Layer_1" xmlns="http://www.w3.org/2000/svg" xmlns:xlink="http://www.w3.org/1999/xlink" x="0px" y="0px"
	 viewBox="0 0 64 64" style="enable-background:new 0 0 64 64;" xml:space="preserve">
<style type="text/css">
	.st0{fill:#ACBDC5;}
	.st1{fill-rule:evenodd;clip-rule:evenodd;fill:#597380;}
	.st2{fill:#314A52;}
	.st3{fill:#FACC2E;}
	.st4{fill:#0779E4;}
</style>
<g id="Thunderstorm">
	<path class="st0" d="M54,20v22H14C7.4,42,2,36.6,2,30c0-6.6,5.4-12,12-12c1.4,0,2.8,0.2,4,0.7C18.7,9.4,26.5,2,36,2
		C45.9,2,54,10.1,54,20z"/>
	<path class="st1" d="M62,31.1c0-5-4.1-9.1-9.1-9.1h-1C50.4,33.3,36.5,36,24,36c-13.1,0-19.8-2.6-20-5.9c0-1.6,0.4-3.2,1.1-4.7
		c0.8-1.5,1.9-2.8,3.4-3.8c1.4-0.9,3.1-1.5,4.8-1.6c1.7-0.1,3.4,0.2,5,0.9c1.6,0.7,2.9,1.8,3.9,3.2l3.2-2.3
		c-1.4-1.9-3.3-3.5-5.4-4.5c-2.2-1-4.6-1.5-7-1.3c-2.4,0.2-4.7,1-6.7,2.3c-2,1.3-3.6,3.1-4.7,5.3s-1.6,4.5-1.5,6.9
		c0.1,2.4,0.8,4.7,2,6.8c1.2,2,3,3.7,5.1,4.9c2.1,1.2,4.4,1.8,6.8,1.8H52v-2C57.6,41.5,62,36.8,62,31.1z"/>
	<path class="st2" d="M16.4,16.2c1.4,0.2,2.6,0.7,3.8,1.2C21.4,9.8,28,4,36,4c8.8,0,16,7.2,16,16c0,0.7,0,1.3-0.1,1.9l-0.2,1.9
		l1.8,0.3c3.7,0.7,6.5,4,6.5,7.9c0,4.4-3.6,8-8,8v4c6.6,0,12-5.4,12-12c0-5.2-3.3-9.7-8-11.3c0-0.2,0-0.5,0-0.7C56,9,47,0,36,0
		C26.3,0,18.1,7,16.4,16.2z"/>
	<polygon class="st3" points="42,40 30,40 26,52 32,52 26,64 42,48 36,48 	"/>
	<path class="st4" d="M14,41L7.9,64L4,63l6.1-23L14,41z M19.9,56L24,41l-3.9-1L16,55L19.9,56z M43.9,64L50,41l-3.9-1L40,63L43.9,64z
		"/>
</g>
</svg>
