<?xml version="1.0" encoding="UTF-8"?>
<svg id="Layer_1" xmlns="http://www.w3.org/2000/svg" version="1.1" xmlns:xlink="http://www.w3.org/1999/xlink" viewBox="0 0 64 64">
  <!-- Generator: Adobe Illustrator 29.3.1, SVG Export Plug-In . SVG Version: 2.1.0 Build 151)  -->
  <defs>
    <style>
      .st0 {
        fill: #ff9700;
      }

      .st1 {
        fill: #facc2e;
      }
    </style>
  </defs>
  <g id="Sun">
    <circle class="st0" cx="32" cy="32" r="22"/>
    <path class="st1" d="M38.3,9.4c-1.1-.3-2.2-.5-3.4-.7l.4-2.2c.2-.9,1.1-1.5,2-1.3.9.2,1.5,1.1,1.3,2l-.4,2.2ZM16.8,9.3c-.8.5-1,1.6-.5,2.3l1.3,1.8c.9-.7,1.8-1.3,2.8-1.9l-1.3-1.8c-.5-.8-1.5-1-2.3-.4ZM5.2,26.6c-.2.9.4,1.8,1.3,2l2.2.4c.2-1.2.3-2.3.7-3.4l-2.2-.4c-.9-.2-1.8.4-2,1.3ZM9.3,47.2c.5.8,1.6,1,2.3.5l1.8-1.3c-.7-.9-1.3-1.8-1.9-2.8l-1.8,1.3c-.8.5-1,1.5-.4,2.3ZM26.6,58.8c.9.2,1.8-.4,2-1.3l.4-2.2c-1.2-.2-2.3-.3-3.4-.7l-.4,2.2c-.2.9.4,1.8,1.3,2ZM47.2,54.7c.8-.5,1-1.6.5-2.3l-1.3-1.8c-.9.7-1.8,1.3-2.8,1.9l1.3,1.8c.5.8,1.5,1,2.3.4ZM58.8,37.4c.2-.9-.4-1.8-1.3-2l-2.2-.4c-.2,1.2-.3,2.3-.7,3.4l2.2.4c.9.2,1.8-.4,2-1.3ZM54.7,16.8c-.5-.8-1.6-1-2.3-.5l-1.8,1.3c.7.9,1.3,1.8,1.9,2.8l1.8-1.3c.8-.5,1-1.5.4-2.3ZM52.1,32c0,11.1-9,20.1-20.1,20.1s-20.1-9-20.1-20.1S20.9,11.9,32,11.9s20.1,9,20.1,20.1ZM32,43.7c9.2,0,16.8-2.5,16.8-11.7s-7.5-16.8-16.8-16.8-16.8,7.5-16.8,16.8,7.5,11.7,16.8,11.7ZM48.6,10.5c-1-.8-2.1-1.5-3.3-2.2l1.4-2.2c.6-.9,1.8-1.1,2.7-.6.9.6,1.1,1.8.6,2.7l-1.4,2.2ZM25.7,1.1c-1,.2-1.8,1.3-1.6,2.3l.5,2.5c1.3-.3,2.6-.6,3.9-.8l-.5-2.5c-.2-1-1.2-1.7-2.3-1.5ZM5.6,14.5c-.6.9-.4,2.2.6,2.7l2.2,1.4c.7-1.2,1.3-2.3,2.2-3.3l-2.2-1.4c-.9-.6-2.1-.3-2.7.6ZM1.1,38.3c.2,1,1.3,1.8,2.3,1.6l2.5-.5c-.3-1.3-.6-2.6-.8-3.9l-2.5.5c-1,.2-1.7,1.2-1.5,2.3ZM14.5,58.4c.9.6,2.2.4,2.7-.6l1.4-2.2c-1.2-.7-2.3-1.3-3.3-2.2l-1.4,2.2c-.6.9-.3,2.1.6,2.7ZM38.3,62.9c1-.2,1.8-1.3,1.6-2.3l-.5-2.5c-1.3.3-2.6.6-3.9.8l.5,2.5c.2,1,1.2,1.7,2.3,1.5ZM58.4,49.5c.6-.9.4-2.2-.6-2.7l-2.2-1.4c-.7,1.2-1.3,2.3-2.2,3.3l2.2,1.4c.9.6,2.1.3,2.7-.6ZM62.9,25.7c-.2-1-1.3-1.8-2.3-1.6l-2.5.5c.3,1.3.6,2.6.8,3.9l2.5-.5c1-.2,1.7-1.2,1.5-2.3Z"/>
  </g>
</svg>