<?xml version="1.0" encoding="utf-8"?>
<!-- Generator: Adobe Illustrator 21.1.0, SVG Export Plug-In . SVG Version: 6.00 Build 0)  -->
<svg version="1.1" id="Layer_1" xmlns="http://www.w3.org/2000/svg" xmlns:xlink="http://www.w3.org/1999/xlink" x="0px" y="0px"
	 viewBox="0 0 64 64" style="enable-background:new 0 0 64 64;" xml:space="preserve">
<style type="text/css">
	.st0{fill:#ACBDC5;}
	.st1{fill:#314A52;}
</style>
<g id="Wind">
	<path class="st0" d="M28,8c-4.4,0-8,3.6-8,8h4c0-2.2,1.8-4,4-4c2.2,0,4,1.8,4,4s-1.8,4-4,4H4v4h10c1.1,0,2,0.9,2,2s-0.9,2-2,2h-2
		l12,2v2h6c1.1,0,2,0.9,2,2s-0.9,2-2,2H16v8h24c2.2,0,4,1.8,4,4s-1.8,4-4,4h9V41l-7-5h16c1.1,0,2,0.9,2,2s-0.9,2-2,2
		c-0.2,0-0.5,0-0.7-0.1L56,43.7c0.6,0.2,1.3,0.3,2,0.3c3.3,0,6-2.7,6-6c0-3.3-2.7-6-6-6H46v-2h8c4.4,0,8-3.6,8-8c0-5.5-4.5-10-10-10
		h-2c3.3,0,6,2.7,6,6c0,3.3-2.7,6-6,6H28c4.4,0,8-3.6,8-8C36,11.6,32.4,8,28,8z"/>
	<path class="st1" d="M64,20c0,6.6-5.4,12-12,12H12v-4h40c4.4,0,8-3.6,8-8c0-4.4-3.6-8-8-8c-4.4,0-8,3.6-8,8h-4c0-6.6,5.4-12,12-12
		C58.6,8,64,13.4,64,20z M8,28H0v4h8V28z M8,40h16v-4H8V40z M48,46c0,3.3-2.7,6-6,6c-2.6,0-4.8-1.7-5.7-4l-3.8,1.3
		C34,53.2,37.7,56,42,56c5.5,0,10-4.5,10-10c0-5.5-4.5-10-10-10H28v4h14C45.3,40,48,42.7,48,46z"/>
</g>
</svg>
