<?xml version="1.0" encoding="utf-8"?>
<!-- Generator: Adobe Illustrator 21.1.0, SVG Export Plug-In . SVG Version: 6.00 Build 0)  -->
<svg version="1.1" id="Layer_1" xmlns="http://www.w3.org/2000/svg" xmlns:xlink="http://www.w3.org/1999/xlink" x="0px" y="0px"
	 viewBox="0 0 64 64" style="enable-background:new 0 0 64 64;" xml:space="preserve">
<style type="text/css">
	.st0{fill:#FFFFFF;}
	.st1{fill:#0779E4;}
	.st2{fill-rule:evenodd;clip-rule:evenodd;fill:#ACBDC5;}
	.st3{fill:#314A52;}
</style>
<g id="Umbrella">
	<path class="st0" d="M46,35.5C45.9,19.2,39.7,6,32,6c-3.9,0-7.8,0.8-11.5,2.3s-6.9,3.7-9.7,6.5c-2.8,2.8-5,6.1-6.5,9.7S2,32.1,2,36
		c0,0,4-2.5,10-2.5c2.8,0,4.7,1,6,2c1.4,1.2,2,2.5,2,2.5s6-4,12-4c6,0,12,4,12,4S44.6,36.7,46,35.5z"/>
	<path class="st1" d="M32,6c-3.9,0-7.8,0.8-11.5,2.3s-6.9,3.7-9.7,6.5c-2.8,2.8-5,6.1-6.5,9.7S2,34.1,2,38c0,0,3-4,9-4s9,4,9,4
		c0-16.6,5.4-30,12-30L32,6z"/>
	<path class="st2" d="M44,36C43.6,20.4,38.4,8,32,8c-3.7,0-7.3,0.7-10.7,2.1c-3.4,1.4-6.5,3.5-9.1,6.1s-4.7,5.7-6.1,9.1
		c-1.2,2.8-1.9,5.8-2.1,8.9C5.7,33,8,32,11,32c3.7,0,6.3,1.5,8,3c0.4,0.3,0.7,0.7,1,1c0.4-0.4,0.9-0.9,1.5-1.3
		C23.8,33.2,27.1,32,32,32c4.9,0,8.2,1.2,10.5,2.7C43.1,35.1,43.6,35.6,44,36z M53,36c-5,0-7,4-7,4h-4c0,0-1.5-4-10-4
		c-8.5,0-10,4-10,4h-4c0,0-2-4-7-4s-7,4-7,4H0v-4c0-4.2,0.8-8.4,2.4-12.2c1.6-3.9,4-7.4,6.9-10.4c3-3,6.5-5.3,10.4-6.9
		C23.6,4.8,27.8,4,32,4c7.5,0,14,4,23,11c5.6,7.6,8,15.2,8.7,21c0.2,1.4,0.3,2.8,0.3,4h-4C60,40,58,36,53,36z"/>
	<path class="st3" d="M34,0v4.1c3.5,0.2,7,1,10.2,2.4c3.9,1.6,7.4,4,10.4,6.9c3,3,5.3,6.5,6.9,10.4c1.6,3.9,2.4,8,2.4,12.2v4h-4
		c0,0,0,0.1,0,0.1s0,0,0,0c0-0.1-0.1-0.3-0.4-0.6c-0.4-0.5-0.9-1-1.6-1.6c-1.5-1.1-3.3-1.9-5-1.9h-1v-4h1c2.6,0,5.1,1.1,7,2.3
		c-0.2-3.1-0.9-6.2-2.1-9.1c-1.4-3.4-3.5-6.5-6.1-9.1s-5.7-4.7-9.1-6.1C39.3,8.7,35.7,8,32,8h-2V0H34z M32,36c-0.7,0-1.4,0-2,0.1V57
		c0,1.7-1.3,3-3,3c-1.7,0-3-1.3-3-3v-1h-4v1c0,3.9,3.1,7,7,7c3.9,0,7-3.1,7-7V36.1C33.4,36,32.7,36,32,36z"/>
</g>
</svg>
