<?xml version="1.0" encoding="UTF-8"?>
<svg id="Layer_1" xmlns="http://www.w3.org/2000/svg" version="1.1" xmlns:xlink="http://www.w3.org/1999/xlink" viewBox="0 0 63.2 20.5">
  <!-- Generator: Adobe Illustrator 29.3.1, SVG Export Plug-In . SVG Version: 2.1.0 Build 151)  -->
  <defs>
    <style>
      .st0 {
        fill: #f1000a;
      }

      .st1 {
        fill: #4564a1;
      }

      .st2 {
        fill: #71c637;
      }

      .st3 {
        fill: #5c626d;
      }

      .st4 {
        fill: #353f4f;
      }

      .st5 {
        fill: #fbd507;
      }

      .st6 {
        fill: #fda600;
      }

      .st7 {
        fill: #fb5017;
      }
    </style>
  </defs>
  <path class="st7" d="M14.8,2.2c.5,0,1-.2,1.6-.2h.7V.3h-.7c-.7,0-1.4,0-2,.2l.5,1.7h0Z"/>
  <path class="st5" d="M10.4,5.2c.4-.6.9-1.2,1.5-1.6l-.9-1.6c-.7.5-1.4,1.2-1.9,1.9,0,0,1.3,1.3,1.3,1.3Z"/>
  <path class="st2" d="M9.4,7.6c.2-.7.4-1.4.8-2l-1.3-1.3c-.5.7-.9,1.5-1.1,2.4,0,0,1.6.9,1.6.9Z"/>
  <path class="st6" d="M11.4,1.7l.9,1.5c.6-.4,1.3-.8,2.1-1l-.5-1.7c-.9.3-1.7.7-2.5,1.2Z"/>
  <g>
    <path class="st3" d="M42.6,10.4l-.7,3.1h-1.8l1.3-3.1h1.2Z"/>
    <path class="st3" d="M44,10.4h1.7v5.3c0,1.2.6,1.8,1.7,1.8s1.8-.6,1.8-1.8v-5.3h1.7v5.3c0,2.3-1.6,3.4-3.5,3.4s-3.4-1.1-3.4-3.4v-5.3Z"/>
    <path class="st3" d="M55.5,19.1c-1.8,0-3.2-.9-3.2-2.6h1.8c0,.7.5,1.1,1.3,1.1s1.3-.4,1.3-1c0-1.9-4.4-.7-4.4-3.9s1.3-2.5,3-2.5,3,.9,3.1,2.5h-1.9c0-.6-.5-1-1.2-1s-1.2.3-1.2,1c0,1.7,4.4.8,4.4,3.8s-1.1,2.6-3,2.6Z"/>
  </g>
  <path class="st3" d="M38.8,10.4v8.7h-2.1v-3.3h-.5l-1.8,3.3h-2.4l2-3.4c-1.3-.4-1.9-1.4-1.9-2.5s1.1-2.7,3.2-2.7h3.5ZM34.2,13.2c0,.7.4,1.1,1.2,1.1h1.3v-2.1h-1.3c-.8,0-1.2.4-1.2,1.1h0Z"/>
  <g>
    <path class="st4" d="M20.8,2.2h1l1.5,5.9,1.7-5.9h1l1.6,5.9,1.5-5.9h1l-2,7h-1l-1.6-5.6-1.7,5.6h-1s-2-7-2-7Z"/>
    <path class="st4" d="M33.5,9.3c-1.6,0-2.7-1.1-2.7-2.8s1.1-2.8,2.7-2.8,2.6,1.1,2.6,2.6,0,.4,0,.6h-4.4c0,1.1.9,1.7,1.8,1.7s1.3-.4,1.5-1h1c-.3,1-1.2,1.8-2.5,1.8h0ZM31.7,6h3.5c0-1.1-.8-1.7-1.7-1.7s-1.6.6-1.7,1.7h0Z"/>
    <path class="st4" d="M39.5,3.6c1,0,1.7.5,2,1.1v-1h.9v5.5h-.9v-1c-.3.6-1,1.1-2.1,1.1s-2.6-1.2-2.6-2.9,1.1-2.8,2.6-2.8h0ZM39.7,4.4c-1,0-1.9.7-1.9,2s.9,2.1,1.9,2.1,1.9-.8,1.9-2-.9-2-1.9-2h0Z"/>
    <path class="st4" d="M44.3,4.5h-.7v-.8h.7v-1.4h.9v1.4h1.4v.8h-1.4v3.2c0,.5.2.7.8.7h.7v.8h-.8c-1,0-1.5-.4-1.5-1.5v-3.2h-.1Z"/>
    <path class="st4" d="M47.7,1.8h.9v2.7c.4-.6,1-.9,1.8-.9,1.2,0,2.2.8,2.2,2.4v3.2h-.9v-3.1c0-1.1-.6-1.7-1.5-1.7s-1.6.6-1.6,1.8v3h-.9V1.8Z"/>
    <path class="st4" d="M56.5,9.3c-1.6,0-2.7-1.1-2.7-2.8s1.1-2.8,2.7-2.8,2.6,1.1,2.6,2.6,0,.4,0,.6h-4.4c0,1.1.9,1.7,1.8,1.7s1.3-.4,1.5-1h1c-.3,1-1.2,1.8-2.5,1.8h0ZM54.7,6h3.5c0-1.1-.8-1.7-1.7-1.7s-1.6.6-1.7,1.7h0Z"/>
    <path class="st4" d="M61.2,9.2h-.9V3.7h.9v.9c.3-.6.9-1,1.8-1v.9h-.2c-.9,0-1.5.4-1.5,1.7v3h0Z"/>
  </g>
  <path class="st0" d="M21.6,1.9c-1.2-.8-2.6-1.4-4.1-1.6v1.6h4.1Z"/>
  <path class="st1" d="M23.6,9.4v.7h0v.4c.5,0,1.4.3,1.5.3,1.6.5,2.7,2.1,2.7,3.8s-1.8,4.1-4.1,4.1H6.5c-.9,0-1.7-.2-2.4-.6-.4-.2-.8-.6-1.2-.9h0s-.2-.2-.2-.3h0c0-.2-.3-.3-.3-.5h0c-1-2.1-.4-3.9.2-4.9.4-.6.8-1.1,1.4-1.6.6-.4,1.4-.8,2.4-.8s1.5.2,2.1.5c.7.3,1.5.8,1.9,1.5l1.3-.9c-.6-.8-1.5-1.5-2.4-2,0,0-1-.4-1.7-.5h-1.6c-1.1,0-2.1.5-3,1s-1.6,1.4-2.1,2.4c-.5,1-.7,2-.7,3.1s.4,2.1.9,3.1c.5.9,1.4,1.7,2.3,2.2s2,.8,3.1.8h17.1c3,0,5.4-2.4,5.4-5.4s-1.5-4.7-3.6-5.2-1.8-.3-1.8-.3Z"/>
</svg>