<?xml version="1.0" encoding="utf-8"?>
<!-- Generator: Adobe Illustrator 21.1.0, SVG Export Plug-In . SVG Version: 6.00 Build 0)  -->
<svg version="1.1" id="Layer_1" xmlns="http://www.w3.org/2000/svg" xmlns:xlink="http://www.w3.org/1999/xlink" x="0px" y="0px"
	 viewBox="0 0 64 64" style="enable-background:new 0 0 64 64;" xml:space="preserve">
<style type="text/css">
	.st0{fill:#FFF200;}
	.st1{fill:#FACC2E;}
</style>
<g id="Sun">
	<circle class="st0" cx="32" cy="32" r="22"/>
	<path class="st1" d="M39.5,5c-1.3-0.4-2.6-0.6-4-0.8L36,1.6c0.2-1.1,1.3-1.8,2.4-1.6c1.1,0.2,1.8,1.3,1.6,2.4L39.5,5z M13.9,4.9
		c-0.9,0.6-1.2,1.9-0.6,2.8l1.5,2.2c1.1-0.8,2.2-1.6,3.4-2.3l-1.5-2.2C16.1,4.5,14.9,4.2,13.9,4.9z M0,25.6
		c-0.2,1.1,0.5,2.2,1.6,2.4l2.6,0.5c0.2-1.4,0.4-2.7,0.8-4L2.4,24C1.3,23.8,0.3,24.5,0,25.6z M4.9,50.1c0.6,0.9,1.9,1.2,2.8,0.6
		l2.2-1.5c-0.8-1.1-1.6-2.2-2.3-3.4l-2.2,1.5C4.5,47.9,4.2,49.1,4.9,50.1z M25.6,64c1.1,0.2,2.2-0.5,2.4-1.6l0.5-2.6
		c-1.4-0.2-2.7-0.4-4-0.8L24,61.6C23.8,62.7,24.5,63.7,25.6,64z M50.1,59.1c0.9-0.6,1.2-1.9,0.6-2.8l-1.5-2.2
		c-1.1,0.8-2.2,1.6-3.4,2.3l1.5,2.2C47.9,59.5,49.1,59.8,50.1,59.1z M64,38.4c0.2-1.1-0.5-2.2-1.6-2.4l-2.6-0.5
		c-0.2,1.4-0.4,2.7-0.8,4l2.6,0.5C62.7,40.2,63.7,39.5,64,38.4z M59.1,13.9c-0.6-0.9-1.9-1.2-2.8-0.6l-2.2,1.5
		c0.8,1.1,1.6,2.2,2.3,3.4l2.2-1.5C59.5,16.1,59.8,14.9,59.1,13.9z M56,32c0,13.3-10.7,24-24,24C18.7,56,8,45.3,8,32
		C8,18.7,18.7,8,32,8C45.3,8,56,18.7,56,32z M32,46c11,0,20-3,20-14c0-11-9-20-20-20c-11,0-20,9-20,20C12,43,21,46,32,46z"/>
</g>
</svg>
