<?xml version="1.0" encoding="utf-8"?>
<!-- Generator: Adobe Illustrator 21.1.0, SVG Export Plug-In . SVG Version: 6.00 Build 0)  -->
<svg version="1.1" id="Layer_1" xmlns="http://www.w3.org/2000/svg" xmlns:xlink="http://www.w3.org/1999/xlink" x="0px" y="0px"
	 viewBox="0 0 64 64" style="enable-background:new 0 0 64 64;" xml:space="preserve">
<style type="text/css">
	.st0{fill:#FACC2E;}
	.st1{fill:#ACBDC5;}
	.st2{fill:#314A52;}
</style>
<g id="Hazy">
	<path class="st0" d="M20.1,5.6l0.5,2.4c-1.4,0.1-2.7,0.4-4,0.8l-0.5-2.4c-0.2-1.1,0.5-2.2,1.6-2.4C18.8,3.8,19.8,4.5,20.1,5.6z
		 M35,10.2c0.6-0.9,0.4-2.2-0.6-2.8S32.3,7,31.6,8l-1.4,2c1.2,0.6,2.3,1.4,3.4,2.3L35,10.2z M1.6,27.9c-1.1,0.2-1.8,1.3-1.6,2.4
		c0.2,1.1,1.3,1.8,2.4,1.6l2.4-0.5c-0.4-1.3-0.7-2.6-0.8-4L1.6,27.9z M6.2,13c-0.9-0.6-2.2-0.4-2.8,0.6C2.8,14.5,3,15.7,4,16.4
		l2,1.4c0.6-1.2,1.4-2.3,2.3-3.4L6.2,13z M22,40c7.7,0,14-6.3,14-14s-6.3-14-14-14c-7.7,0-14,6.3-14,14S14.3,40,22,40z"/>
	<path class="st1" d="M40,22c0-1.1-0.9-2-2-2c-1.1,0-2-0.9-2-2s0.9-2,2-2h12c1.1,0,2,0.9,2,2s-0.9,2-2,2h-4c-1.1,0-2,0.9-2,2
		s0.9,2,2,2h8v4c-1.1,0-2,0.9-2,2s0.9,2,2,2v2h-4v2h-4c-1.1,0-2,0.9-2,2s0.9,2,2,2h14v4H42v8h-4c-1.1,0-2,0.9-2,2c0,1.1,0.9,2,2,2
		c1.1,0,2,0.9,2,2c0,1.1-0.9,2-2,2H26c-1.1,0-2-0.9-2-2c0-1.1,0.9-2,2-2h4c1.1,0,2-0.9,2-2c0-1.1-0.9-2-2-2H10v-4c1.1,0,2-0.9,2-2
		c0-1.1-0.9-2-2-2v-2h12v-8h8V24h8C39.1,24,40,23.1,40,22z M54,48c-1.1,0-2,0.9-2,2s0.9,2,2,2h4c1.1,0,2-0.9,2-2s-0.9-2-2-2H54z"/>
	<path class="st2" d="M26,24h16c1.1,0,2,0.9,2,2s-0.9,2-2,2h-8c-1.1,0-2,0.9-2,2s0.9,2,2,2h24c1.1,0,2,0.9,2,2s-0.9,2-2,2H26
		c-1.1,0-2,0.9-2,2c0,1.1,0.9,2,2,2h24c1.1,0,2,0.9,2,2c0,1.1-0.9,2-2,2h-4c-1.1,0-2,0.9-2,2c0,1.1,0.9,2,2,2c1.1,0,2,0.9,2,2
		c0,1.1-0.9,2-2,2H34c-1.1,0-2-0.9-2-2c0-1.1,0.9-2,2-2h4c1.1,0,2-0.9,2-2c0-1.1-0.9-2-2-2H6c-1.1,0-2-0.9-2-2c0-1.1,0.9-2,2-2h12
		c1.1,0,2-0.9,2-2c0-1.1-0.9-2-2-2h-4c-1.1,0-2-0.9-2-2s0.9-2,2-2h12c1.1,0,2-0.9,2-2s-0.9-2-2-2c-1.1,0-2-0.9-2-2S24.9,24,26,24z
		 M50,24c-1.1,0-2,0.9-2,2c0,1.1,0.9,2,2,2h4c1.1,0,2-0.9,2-2c0-1.1-0.9-2-2-2H50z M58,40c-1.1,0-2,0.9-2,2c0,1.1,0.9,2,2,2h4
		c1.1,0,2-0.9,2-2c0-1.1-0.9-2-2-2H58z M10,48c-1.1,0-2,0.9-2,2c0,1.1,0.9,2,2,2h16c1.1,0,2-0.9,2-2c0-1.1-0.9-2-2-2H10z"/>
</g>
</svg>
