<?xml version="1.0" encoding="utf-8"?>
<!-- Generator: Adobe Illustrator 21.1.0, SVG Export Plug-In . SVG Version: 6.00 Build 0)  -->
<svg version="1.1" id="Layer_1" xmlns="http://www.w3.org/2000/svg" xmlns:xlink="http://www.w3.org/1999/xlink" x="0px" y="0px"
	 viewBox="0 0 64 64" style="enable-background:new 0 0 64 64;" xml:space="preserve">
<style type="text/css">
	.st0{fill:#FACC2E;}
	.st1{fill:#FFFFFF;}
	.st2{fill:#FF6C58;}
	.st3{fill:#314A52;}
	.st4{fill:#ACBDC5;}
	.st5{fill:#D7385E;}
</style>
<g id="Hot">
	<path class="st0" d="M42.3,4c1.1,0.2,1.8,1.3,1.6,2.4l-0.5,2.4c-1.3-0.4-2.6-0.7-4-0.8l0.5-2.4C40.2,4.5,41.2,3.8,42.3,4z M46.3,42
		l1.4,2c0.6,0.9,1.9,1.2,2.8,0.6c0.9-0.6,1.2-1.9,0.6-2.8l-1.4-2C48.6,40.6,47.5,41.4,46.3,42z M55.2,31.5l2.4,0.5
		c1.1,0.2,2.2-0.5,2.4-1.6c0.2-1.1-0.5-2.2-1.6-2.4l-2.4-0.5C55.8,28.9,55.6,30.2,55.2,31.5z M54,17.7l2-1.4
		c0.9-0.6,1.2-1.9,0.6-2.8s-1.9-1.2-2.8-0.6l-2,1.4C52.6,15.4,53.4,16.5,54,17.7z M38,40c7.7,0,14-6.3,14-14c0-7.7-6.3-14-14-14
		c-7.7,0-14,6.3-14,14C24,33.7,30.3,40,38,40z"/>
	<path class="st1" d="M14,12c0-5.5,4.5-10,10-10c5.5,0,10,4.5,10,10v26l4,6.5V52c0,5.5-4.5,10-10,10h-8c-5.5,0-10-4.5-10-10v-7.5
		l4-6.5V12z"/>
	<path class="st2" d="M24,8c-2.2,0-4,1.8-4,4v29.1c-0.6,0.3-1.2,0.8-1.7,1.3c-3.1,3.1-3.1,8.2,0,11.3c5.8,5.8,17.2-5.5,11.3-11.3
		c-0.5-0.5-1.1-0.9-1.7-1.3V12C28,9.8,26.2,8,24,8z"/>
	<path class="st3" d="M16,12c0-4.4,3.6-8,8-8c4.4,0,8,3.6,8,8h-8v4h8v4h-4v4h4v4h-8v4h8v7l0.6,0.6c2.1,2.2,3.4,5.1,3.4,8.4
		c0,6.6-6.4,11-13,11l1,5c8.8,0,16-7.2,16-16c0-4.1-1.5-7.8-4-10.6V12c0-6.6-5.4-12-12-12c-6.6,0-12,5.4-12,12v26h4V12z"/>
	<path class="st4" d="M20,36.7l-1.3-3.8C12.5,35.1,8,41,8,48c0,8.8,7.2,16,16,16v-4c6.6,0,12-5.4,12-12c0-0.3,0-0.7,0-1
		c-0.5,5.8-5.7,7-12,7s-11.4-1.2-12-7c0,0.3,0,0.7,0,1C12,42.8,15.3,38.3,20,36.7z"/>
	<path class="st5" d="M20,50c4.4,0,8-3.6,8-8c0-0.3,0-0.6-0.1-1c2.4,1.4,4.1,4,4.1,7c0,4.4-3.6,8-8,8c-4.1,0-7.5-3.1-7.9-7
		C17.2,49.6,18.6,50,20,50z"/>
</g>
</svg>
