<?xml version="1.0" encoding="utf-8"?>
<!-- Generator: Adobe Illustrator 21.1.0, SVG Export Plug-In . SVG Version: 6.00 Build 0)  -->
<svg version="1.1" id="Layer_1" xmlns="http://www.w3.org/2000/svg" xmlns:xlink="http://www.w3.org/1999/xlink" x="0px" y="0px"
	 viewBox="0 0 64 64" style="enable-background:new 0 0 64 64;" xml:space="preserve">
<style type="text/css">
	.st0{fill:#FACC2E;}
	.st1{fill:#FFFFFF;}
	.st2{fill:#ACBDC5;}
	.st3{fill:#314A52;}
</style>
<g id="Partly-Cloudy">
	<path class="st0" d="M20.1,9.6l0.5,2.4c-1.4,0.1-2.7,0.4-4,0.8l-0.5-2.4c-0.2-1.1,0.5-2.2,1.6-2.4C18.8,7.8,19.8,8.5,20.1,9.6z
		 M35,14.2c0.6-0.9,0.4-2.2-0.6-2.8S32.3,11,31.6,12l-1.4,2c1.2,0.6,2.3,1.4,3.4,2.3L35,14.2z M1.6,31.9c-1.1,0.2-1.8,1.3-1.6,2.4
		c0.2,1.1,1.3,1.8,2.4,1.6l2.4-0.5c-0.4-1.3-0.7-2.6-0.8-4L1.6,31.9z M6.2,17c-0.9-0.6-2.2-0.4-2.8,0.6C2.8,18.5,3,19.7,4,20.4
		l2,1.4c0.6-1.2,1.4-2.3,2.3-3.4L6.2,17z M22,44c7.7,0,14-6.3,14-14c0-7.7-6.3-14-14-14c-7.7,0-14,6.3-14,14C8,37.7,14.3,44,22,44z"
		/>
	<path class="st1" d="M54,37v17H20c-5.5,0-10-4.5-10-10c0-5.5,4.5-10,10-10c1.5,0,2.9,0.3,4.1,0.9C25.2,27.6,31.4,22,39,22
		C47.3,22,54,28.7,54,37z"/>
	<path class="st2" d="M20.1,32c-2.1,0-4.2,0.5-6,1.6c-1.8,1-3.4,2.5-4.4,4.4S8,41.8,8,43.9c0,2.1,0.5,4.2,1.6,6
		c1,1.8,2.5,3.4,4.4,4.4c1.8,1.1,3.9,1.6,6,1.6L52,56l0-2h2c4.4,0,8-3.6,8-8v-1c0-3.9-3.1-7-7-7h-3c-0.5,7.7-6.7,10-24,10
		c-11,0-16-1.8-16-4c0,0,0,0,0,0c0-1.4,0.4-2.8,1.1-4c0.7-1.2,1.7-2.2,2.9-2.9c1.2-0.7,2.6-1.1,4-1.1s2.8,0.4,4,1.1
		c1.2,0.7,2.2,1.7,2.9,2.9l3.5-2c-1-1.8-2.5-3.4-4.4-4.4C24.2,32.6,22.2,32,20.1,32z"/>
	<path class="st3" d="M26.4,33.8C27.8,28.2,32.9,24,39,24c7.2,0,13,5.8,13,13c0,0.3,0,0.6,0,0.9L51.8,40l2.1,0l0,0c3.3,0,6,2.7,6,6
		c0,3.3-2.7,6-6,6h-2v4h2c5.5,0,10-4.5,10-10c0-4.8-3.4-8.9-8-9.8c-0.4-9-7.9-16.2-17-16.2c-7.8,0-14.3,5.2-16.3,12.3
		C24,32.6,25.3,33.1,26.4,33.8z"/>
</g>
</svg>
