<?xml version="1.0" encoding="utf-8"?>
<!-- Generator: Adobe Illustrator 21.1.0, SVG Export Plug-In . SVG Version: 6.00 Build 0)  -->
<svg version="1.1" id="Layer_1" xmlns="http://www.w3.org/2000/svg" xmlns:xlink="http://www.w3.org/1999/xlink" x="0px" y="0px"
	 viewBox="0 0 64 64" style="enable-background:new 0 0 64 64;" xml:space="preserve">
<style type="text/css">
	.st0{fill-rule:evenodd;clip-rule:evenodd;fill:#57CEF3;}
	.st1{fill:#FFFFFF;}
	.st2{fill:#57CEF3;}
	.st3{fill:#314A52;}
	.st4{fill:#ACBDC5;}
	.st5{fill:#0779E4;}
</style>
<g id="Cold">
	<path class="st0" d="M40,31.8v5l-3.3,1.8l1.9,3.5l1.4-0.8V44h4v-2.6l1.5,0.8l1.9-3.5L44,36.8v-5l4,2.3v-4.3l4,2.3V36h4v-1.5l2,1.2
		l2-3.5L57.9,31l1.6-0.9l-2-3.4l-3.4,2L50,26.4l3.9-2.3l-4-2.5l4-2.4l3.4,2l2-3.4L57.9,17l2.1-1.2l-2-3.5l-2,1.2V12h-4v3.8l-4,2.3
		v-4.3l-4,2.3v-5l3.4-1.8l-1.9-3.5L44,6.6V4h-4v2.6l-1.4-0.8l-1.9,3.5l3.3,1.8v5l-4-2.3v4.3l-4-2.3V12h-4v1.5L26,12.3l-2,3.5
		l2.1,1.3l-1.5,0.9l2,3.4l3.4-2l4.1,2.4l-4,2.5l3.9,2.2l-3.9,2.3l-3.4-2l-2,3.4l1.5,0.9L24,32.3l2,3.5l2.1-1.2V36h4v-3.8l4-2.3v4.3
		L40,31.8z"/>
	<path class="st1" d="M14,12c0-5.5,4.5-10,10-10c5.5,0,10,4.5,10,10v26l4,6.5V52c0,5.5-4.5,10-10,10h-8c-5.5,0-10-4.5-10-10v-7.5
		l4-6.5V12z"/>
	<path class="st2" d="M24,24c-2.2,0-4,1.8-4,4v13.1c-0.6,0.3-1.2,0.8-1.7,1.3c-3.1,3.1-3.1,8.2,0,11.3c5.8,5.8,17.2-5.5,11.3-11.3
		c-0.5-0.5-1.1-0.9-1.7-1.3V28C28,25.8,26.2,24,24,24z"/>
	<path class="st3" d="M16,12c0-4.4,3.6-8,8-8c4.4,0,8,3.6,8,8h-8v4h8v4h-4v4h4v4h-8v4h8v7l0.6,0.6c2.1,2.2,3.4,5.1,3.4,8.4
		c0,6.6-6.4,11-13,11l1,5c8.8,0,16-7.2,16-16c0-4.1-1.5-7.8-4-10.6V12c0-6.6-5.4-12-12-12c-6.6,0-12,5.4-12,12v26h4V12z"/>
	<path class="st4" d="M20,36.7l-1.3-3.8C12.5,35.1,8,41,8,48c0,8.8,7.2,16,16,16v-4c6.6,0,12-5.4,12-12c0-0.3,0-0.7,0-1
		c-0.5,5.8-5.7,7-12,7s-11.4-1.2-12-7c0,0.3,0,0.7,0,1C12,42.8,15.3,38.3,20,36.7z"/>
	<path class="st5" d="M20,50c4.4,0,8-3.6,8-8c0-0.3,0-0.6-0.1-1c2.4,1.4,4.1,4,4.1,7c0,4.4-3.6,8-8,8c-4.1,0-7.5-3.1-7.9-7
		C17.2,49.6,18.6,50,20,50z"/>
</g>
</svg>
